<?xml version="1.0" encoding="UTF-8"?>
<svg version="1.1" xmlns="http://www.w3.org/2000/svg" width="500" height="500">
<path d="M0 0 C82.5 0 165 0 250 0 C250 48.84 250 97.68 250 148 C216.01 148 182.02 148 147 148 C147 158.23 147 168.46 147 179 C163.17 179 179.34 179 196 179 C196 180.98 196 182.96 196 185 C197.98 185 199.96 185 202 185 C202 187.64 202 190.28 202 193 C257.11 193 312.22 193 369 193 C369 202.9 369 212.8 369 223 C363.39 223 357.78 223 352 223 C352 247.75 352 272.5 352 298 C315.04 298 278.08 298 240 298 C240 273.25 240 248.5 240 223 C168.39 223 96.78 223 23 223 C23 248.08 23 273.16 23 299 C-15.94 299 -54.88 299 -95 299 C-95 273.92 -95 248.84 -95 223 C-101.93 223 -108.86 223 -116 223 C-116 213.1 -116 203.2 -116 193 C-58.25 193 -0.5 193 59 193 C59 190.36 59 187.72 59 185 C61.64 185 64.28 185 67 185 C67 183.02 67 181.04 67 179 C82.18 179 97.36 179 113 179 C113 168.77 113 158.54 113 148 C75.71 148 38.42 148 0 148 C0 99.16 0 50.32 0 0 Z M15 133 C15 133.33 15 133.66 15 134 C87.6 134 160.2 134 235 134 C235 133.67 235 133.34 235 133 C162.4 133 89.8 133 15 133 Z " fill="#779995" transform="translate(123,100)"/>
<path d="M0 0 C160.05 0 320.1 0 485 0 C485 9.9 485 19.8 485 30 C479.39 30 473.78 30 468 30 C468 54.75 468 79.5 468 105 C431.04 105 394.08 105 356 105 C356 80.25 356 55.5 356 30 C284.39 30 212.78 30 139 30 C139 55.08 139 80.16 139 106 C100.06 106 61.12 106 21 106 C21 80.92 21 55.84 21 30 C14.07 30 7.14 30 0 30 C0 20.1 0 10.2 0 0 Z " fill="#EFB87F" transform="translate(7,293)"/>
<path d="M0 0 C38.94 0 77.88 0 118 0 C118 25.08 118 50.16 118 76 C79.06 76 40.12 76 0 76 C0 50.92 0 25.84 0 0 Z " fill="#704227" transform="translate(28,323)"/>
<path d="M0 0 C36.96 0 73.92 0 112 0 C112 24.75 112 49.5 112 75 C75.04 75 38.08 75 0 75 C0 50.25 0 25.5 0 0 Z " fill="#704227" transform="translate(363,323)"/>
<path d="M0 0 C1.32 0 2.64 0 4 0 C4 47.52 4 95.04 4 144 C83.86 144 163.72 144 246 144 C246 96.48 246 48.96 246 0 C247.32 0 248.64 0 250 0 C250 48.84 250 97.68 250 148 C216.01 148 182.02 148 147 148 C147 158.23 147 168.46 147 179 C163.17 179 179.34 179 196 179 C196 180.98 196 182.96 196 185 C197.98 185 199.96 185 202 185 C202 187.64 202 190.28 202 193 C154.81 193 107.62 193 59 193 C59 190.36 59 187.72 59 185 C61.64 185 64.28 185 67 185 C67 183.02 67 181.04 67 179 C82.18 179 97.36 179 113 179 C113 168.77 113 158.54 113 148 C75.71 148 38.42 148 0 148 C0 99.16 0 50.32 0 0 Z " fill="#726D6D" transform="translate(123,100)"/>
<path d="M0 0 C1.592307 0.05025608 3.18476773 0.09586671 4.77734375 0.13671875 C8.65019233 0.23746923 12.5013709 0.43281333 16.375 0.625 C16.375 6.895 16.375 13.165 16.375 19.625 C18.355 19.625 20.335 19.625 22.375 19.625 C25.25927734 20.63476562 25.25927734 20.63476562 28.2109375 22.03125 C29.80615234 22.77568359 29.80615234 22.77568359 31.43359375 23.53515625 C32.52800781 24.05980469 33.62242187 24.58445313 34.75 25.125 C35.86761719 25.64964844 36.98523438 26.17429688 38.13671875 26.71484375 C40.88780196 28.00808799 43.63345007 29.31169788 46.375 30.625 C46.375 31.285 46.375 31.945 46.375 32.625 C47.035 32.625 47.695 32.625 48.375 32.625 C47.85475628 37.93839976 46.48488365 42.18386436 44.13671875 46.9921875 C43.81467972 47.67121124 43.49264069 48.35023499 43.1608429 49.04983521 C42.13687098 51.20422598 41.10015734 53.35217257 40.0625 55.5 C39.37736135 56.93316677 38.69310882 58.36675752 38.00976562 59.80078125 C37.02012771 61.87753708 36.02999981 63.95402652 35.03610229 66.02874756 C32.72601639 70.85661804 30.51059683 75.71697026 28.375 80.625 C26.395 80.625 24.415 80.625 22.375 80.625 C22.375 79.965 22.375 79.305 22.375 78.625 C21.77437744 78.32730713 21.17375488 78.02961426 20.55493164 77.72290039 C17.84808771 76.37983792 15.14277908 75.03371152 12.4375 73.6875 C11.49197266 73.21892578 10.54644531 72.75035156 9.57226562 72.26757812 C8.22358398 71.5956543 8.22358398 71.5956543 6.84765625 70.91015625 C5.59867554 70.28959351 5.59867554 70.28959351 4.32446289 69.65649414 C2.375 68.625 2.375 68.625 1.375 67.625 C-0.99838639 67.46528023 -3.34618272 67.3657567 -5.72265625 67.30859375 C-6.43151474 67.28781265 -7.14037323 67.26703156 -7.87071228 67.24562073 C-10.14287305 67.18005402 -12.41515264 67.1212077 -14.6875 67.0625 C-16.22462183 67.01932151 -17.7617315 66.97570745 -19.29882812 66.93164062 C-23.0740959 66.82436551 -26.8494836 66.72311863 -30.625 66.625 C-30.70109679 59.45343832 -30.75361962 52.28198086 -30.78979492 45.11010742 C-30.80487654 42.67061472 -30.82534469 40.2311491 -30.85131836 37.79174805 C-30.88772812 34.28427441 -30.90473289 30.77715946 -30.91796875 27.26953125 C-30.93345261 26.17977493 -30.94893646 25.09001862 -30.96488953 23.96723938 C-30.96695382 14.66869367 -30.96695382 14.66869367 -27.625 10.625 C-27.01092285 9.74924316 -26.3968457 8.87348633 -25.76416016 7.97119141 C-18.06573993 -1.09223288 -11.02599239 -0.60859987 0 0 Z " fill="#2D2C2B" transform="translate(243.625,130.375)"/>
<path d="M0 0 C34.32 0 68.64 0 104 0 C104 11.55 104 23.1 104 35 C69.68 35 35.36 35 0 35 C0 23.45 0 11.9 0 0 Z " fill="#704227" transform="translate(367,363)"/>
<path d="M0 0 C36.3 0 72.6 0 110 0 C110 10.89 110 21.78 110 33 C73.7 33 37.4 33 0 33 C0 22.11 0 11.22 0 0 Z " fill="#704227" transform="translate(32,366)"/>
<path d="M0 0 C2.31 0 4.62 0 7 0 C7 45.54 7 91.08 7 138 C82.24 138 157.48 138 235 138 C235 92.46 235 46.92 235 0 C237.31 0 239.62 0 242 0 C242 47.52 242 95.04 242 144 C162.14 144 82.28 144 0 144 C0 96.48 0 48.96 0 0 Z " fill="#B3C1BF" transform="translate(127,100)"/>
<path d="M0 0 C69.96 0 139.92 0 212 0 C211.67 0.99 211.34 1.98 211 3 C210.34 3 209.68 3 209 3 C209 3.66 209 4.32 209 5 C208.34 5 207.68 5 207 5 C207 6.32 207 7.64 207 9 C208.32 9 209.64 9 211 9 C211 8.34 211 7.68 211 7 C211.66 7 212.32 7 213 7 C213 6.34 213 5.68 213 5 C213.66 5 214.32 5 215 5 C215.33 4.34 215.66 3.68 216 3 C216 44.58 216 86.16 216 129 C215.01 129 214.02 129 213 129 C213 127.68 213 126.36 213 125 C212.01 125 211.02 125 210 125 C210 124.01 210 123.02 210 122 C209.01 122 208.02 122 207 122 C207 85.04 207 48.08 207 10 C140.67 10 74.34 10 6 10 C6 8.68 6 7.36 6 6 C5.34 6 4.68 6 4 6 C4 5.01 4 4.02 4 3 C3.34 3 2.68 3 2 3 C2 2.34 2 1.68 2 1 C1.34 0.67 0.68 0.34 0 0 Z " fill="#99CCC6" transform="translate(142,100)"/>
<path d="M0 0 C7.59 0 15.18 0 23 0 C23 19.14 23 38.28 23 58 C10.13 58 -2.74 58 -16 58 C-16 42.82 -16 27.64 -16 12 C-11.05 12 -6.1 12 -1 12 C-1.020625 10.39125 -1.04125 8.7825 -1.0625 7.125 C-1.125 2.25 -1.125 2.25 0 0 Z " fill="#F8F7FA" transform="translate(233,135)"/>
<path d="M0 0 C65.67 0 131.34 0 199 0 C199 0.99 199 1.98 199 3 C199.99 3 200.98 3 202 3 C202 3.99 202 4.98 202 6 C202.99 6 203.98 6 205 6 C205 7.32 205 8.64 205 10 C135.04 10 65.08 10 -7 10 C-7 9.01 -7 8.02 -7 7 C-5.68 7 -4.36 7 -3 7 C-3 5.68 -3 4.36 -3 3 C-2.01 3 -1.02 3 0 3 C0 2.01 0 1.02 0 0 Z " fill="#99CCC6" transform="translate(149,223)"/>
<path d="M0 0 C1.32 0 2.64 0 4 0 C4 44.22 4 88.44 4 134 C76.6 134 149.2 134 224 134 C223.67 91.43 223.34 48.86 223 5 C222.34 5 221.68 5 221 5 C221 5.66 221 6.32 221 7 C220.34 7 219.68 7 219 7 C219 7.66 219 8.32 219 9 C217.68 9 216.36 9 215 9 C215 7.68 215 6.36 215 5 C215.66 5 216.32 5 217 5 C217 4.34 217 3.68 217 3 C217.66 3 218.32 3 219 3 C219.33 2.01 219.66 1.02 220 0 C222.64 0 225.28 0 228 0 C228 45.54 228 91.08 228 138 C152.76 138 77.52 138 0 138 C0 92.46 0 46.92 0 0 Z " fill="#726D6D" transform="translate(134,100)"/>
<path d="M0 0 C38.94 0 77.88 0 118 0 C118 25.08 118 50.16 118 76 C116.68 76 115.36 76 114 76 C114 65.11 114 54.22 114 43 C77.7 43 41.4 43 4 43 C4 53.89 4 64.78 4 76 C2.68 76 1.36 76 0 76 C0 50.92 0 25.84 0 0 Z M4 4 C4 15.55 4 27.1 4 39 C40.3 39 76.6 39 114 39 C114 27.45 114 15.9 114 4 C77.7 4 41.4 4 4 4 Z " fill="#2C2B2A" transform="translate(28,323)"/>
<path d="M0 0 C36.96 0 73.92 0 112 0 C112 24.75 112 49.5 112 75 C110.68 75 109.36 75 108 75 C108 63.45 108 51.9 108 40 C73.68 40 39.36 40 4 40 C4 51.55 4 63.1 4 75 C2.68 75 1.36 75 0 75 C0 50.25 0 25.5 0 0 Z M4 4 C4 14.56 4 25.12 4 36 C38.32 36 72.64 36 108 36 C108 25.44 108 14.88 108 4 C73.68 4 39.36 4 4 4 Z " fill="#2C2B2A" transform="translate(363,323)"/>
<path d="M0 0 C16.07313365 -0.03260647 32.14258373 0.05716408 48.21484375 0.21875 C50.53609627 0.24126716 52.85734975 0.26368546 55.17860413 0.28601074 C61.20351126 0.34421573 67.22840465 0.4037374 73.2532959 0.46356201 C79.43513202 0.5247024 85.61698059 0.5845579 91.79882812 0.64453125 C103.86589771 0.76178473 115.93295313 0.88043341 128 1 C128 1.66 128 2.32 128 3 C130.31 3 132.62 3 135 3 C135 5.64 135 8.28 135 11 C87.81 11 40.62 11 -8 11 C-8 8.36 -8 5.72 -8 3 C-5.36 3 -2.72 3 0 3 C0 2.01 0 1.02 0 0 Z " fill="#B4C2C0" transform="translate(190,282)"/>
<path d="M0 0 C0.66 0 1.32 0 2 0 C2 0.66 2 1.32 2 2 C2.66 2 3.32 2 4 2 C4 2.66 4 3.32 4 4 C4.66 4 5.32 4 6 4 C6 4.99 6 5.98 6 7 C6.99 7 7.98 7 9 7 C9 43.96 9 80.92 9 119 C8.34 119 7.68 119 7 119 C7 120.32 7 121.64 7 123 C6.01 123 5.02 123 4 123 C4 123.99 4 124.98 4 126 C2.68 126 1.36 126 0 126 C0 84.42 0 42.84 0 0 Z " fill="#99CCC6" transform="translate(138,103)"/>
<path d="M0 0 C4.00306393 0.80061279 6.68763715 1.61592593 10.30078125 3.28515625 C11.27724609 3.73310547 12.25371094 4.18105469 13.25976562 4.64257812 C14.26716797 5.11115234 15.27457031 5.57972656 16.3125 6.0625 C17.33923828 6.53494141 18.36597656 7.00738281 19.42382812 7.49414062 C21.951452 8.65802325 24.47670072 9.82677855 27 11 C25.5085545 15.7869539 23.61378989 20.26023291 21.5234375 24.8046875 C21.19332672 25.5286673 20.86321594 26.25264709 20.52310181 26.99856567 C19.47657751 29.29202176 18.42586008 31.58352783 17.375 33.875 C16.66117964 35.4373727 15.9476351 36.99987145 15.234375 38.5625 C13.49277094 42.37646568 11.74740578 46.18868917 10 50 C6.15827097 49.29920108 3.16160747 48.24403589 -0.3125 46.4375 C-1.19550781 45.98246094 -2.07851563 45.52742188 -2.98828125 45.05859375 C-3.98408203 44.53458984 -3.98408203 44.53458984 -5 44 C-5 43.67 -5 43.34 -5 43 C-3.35 43 -1.7 43 0 43 C0 28.81 0 14.62 0 0 Z " fill="#F8F7FA" transform="translate(260,154)"/>
<path d="M0 0 C8.58 0 17.16 0 26 0 C26 8.91 26 17.82 26 27 C17.42 27 8.84 27 0 27 C0 18.09 0 9.18 0 0 Z " fill="#B4C2C0" transform="translate(240,251)"/>
<path d="M0 0 C1.32 0 2.64 0 4 0 C4 1.32 4 2.64 4 4 C48.55 4 93.1 4 139 4 C139 2.68 139 1.36 139 0 C140.32 0 141.64 0 143 0 C143 2.64 143 5.28 143 8 C95.81 8 48.62 8 0 8 C0 5.36 0 2.72 0 0 Z " fill="#726D6D" transform="translate(182,285)"/>
<path d="M0 0 C3.96 0 7.92 0 12 0 C12 8.91 12 17.82 12 27 C8.04 27 4.08 27 0 27 C0 18.09 0 9.18 0 0 Z " fill="#9B9797" transform="translate(240,251)"/>
<path d="M0 0 C7.59 0 15.18 0 23 0 C23 2.31 23 4.62 23 7 C14.09 7 5.18 7 -4 7 C-4 5.68 -4 4.36 -4 3 C-2.68 3 -1.36 3 0 3 C0 2.01 0 1.02 0 0 Z " fill="#9B9797" transform="translate(190,282)"/>
<path d="M0 0 C8.91 0 17.82 0 27 0 C27 1.65 27 3.3 27 5 C26 6 26 6 23.40795898 6.11352539 C22.28204346 6.10828857 21.15612793 6.10305176 19.99609375 6.09765625 C18.78115234 6.09443359 17.56621094 6.09121094 16.31445312 6.08789062 C15.03505859 6.07951172 13.75566406 6.07113281 12.4375 6.0625 C11.15423828 6.05798828 9.87097656 6.05347656 8.54882812 6.04882812 C5.36583978 6.03699545 2.18294238 6.02051068 -1 6 C-0.67 4.02 -0.34 2.04 0 0 Z " fill="#A6B1AF" transform="translate(317,238)"/>
<path d="M0 0 C7.92 0 15.84 0 24 0 C24 1.32 24 2.64 24 4 C16.08 4 8.16 4 0 4 C0 2.68 0 1.36 0 0 Z " fill="#2C2B2A" transform="translate(224,162)"/>
<path d="M0 0 C7.92 0 15.84 0 24 0 C24 1.32 24 2.64 24 4 C16.08 4 8.16 4 0 4 C0 2.68 0 1.36 0 0 Z " fill="#2C2B2A" transform="translate(224,151)"/>
<path d="M0 0 C7.59 0 15.18 0 23 0 C23 1.32 23 2.64 23 4 C15.41 4 7.82 4 0 4 C0 2.68 0 1.36 0 0 Z " fill="#2C2B2A" transform="translate(225,174)"/>
<path d="M0 0 C1.32 0 2.64 0 4 0 C3.67 1.65 3.34 3.3 3 5 C2.34 5 1.68 5 1 5 C1 5.66 1 6.32 1 7 C0.34 7 -0.32 7 -1 7 C-1 7.66 -1 8.32 -1 9 C-2.32 9 -3.64 9 -5 9 C-5 7.68 -5 6.36 -5 5 C-4.34 5 -3.68 5 -3 5 C-3 4.34 -3 3.68 -3 3 C-2.34 3 -1.68 3 -1 3 C-0.67 2.01 -0.34 1.02 0 0 Z " fill="#779995" transform="translate(354,100)"/>
</svg>
